<svg width="16" height="16" viewBox="0 0 16 16" fill="none" xmlns="http://www.w3.org/2000/svg">
<path d="M10 3.05884L2.4 3.05882M10 3.05884C10 4.1959 10.8954 5.11765 12 5.11765C13.1046 5.11765 14 4.19588 14 3.05882C14 1.92177 13.1046 1 12 1C10.8954 1 10 1.92178 10 3.05884ZM13.6 8H6.00001M6.00001 8C6.00001 9.13705 5.10457 10.0588 4 10.0588C2.89543 10.0588 2 9.13705 2 8C2 6.86295 2.89543 5.94118 4 5.94118C5.10457 5.94118 6.00001 6.86295 6.00001 8ZM10 12.9412H2.4M10 12.9412C10 14.0782 10.8954 15 12 15C13.1046 15 14 14.0782 14 12.9412C14 11.8041 13.1046 10.8824 12 10.8824C10.8954 10.8824 10 11.8041 10 12.9412Z" stroke="#131313" stroke-width="1.5" stroke-linecap="round"/>
</svg>
