<svg width="214" height="120" viewBox="0 0 214 120" fill="none" xmlns="http://www.w3.org/2000/svg">
<path d="M5.24219 116.266C3.17969 116.266 1 114.812 1 110.57V110.555C1 106.711 2.60156 104.461 5.33594 104.461C7.22656 104.461 8.63281 105.57 9.01562 107.234L9.03906 107.336H7.625L7.59375 107.25C7.25 106.305 6.46094 105.719 5.32031 105.719C3.27344 105.719 2.4375 107.719 2.35156 110.07C2.34375 110.156 2.34375 110.25 2.34375 110.336H2.49219C2.90625 109.414 3.96875 108.594 5.49219 108.594C7.60938 108.594 9.1875 110.203 9.1875 112.367V112.383C9.1875 114.633 7.51562 116.266 5.24219 116.266ZM2.67969 112.367C2.67969 113.852 3.79688 115.023 5.22656 115.023C6.64062 115.023 7.77344 113.875 7.77344 112.414V112.398C7.77344 110.898 6.71094 109.82 5.25 109.82C3.78906 109.82 2.67969 110.891 2.67969 112.359V112.367ZM11.9141 116L16.9766 106.094V105.984H10.9453V104.727H18.4062V106.031L13.3906 116H11.9141ZM22.6562 110.656C21.2188 110.656 20.3516 109.484 20.3516 107.617V107.609C20.3516 105.742 21.2188 104.578 22.6562 104.578C24.0938 104.578 24.9688 105.742 24.9688 107.609V107.617C24.9688 109.484 24.0938 110.656 22.6562 110.656ZM23.5 116H22.2344L29.9062 104.727H31.1719L23.5 116ZM22.6562 109.727C23.4297 109.727 23.8828 108.938 23.8828 107.617V107.609C23.8828 106.289 23.4297 105.508 22.6562 105.508C21.8828 105.508 21.4375 106.289 21.4375 107.609V107.617C21.4375 108.938 21.8828 109.727 22.6562 109.727ZM30.7344 116.148C29.2969 116.148 28.4297 114.977 28.4297 113.109V113.102C28.4297 111.234 29.2969 110.07 30.7344 110.07C32.1719 110.07 33.0469 111.234 33.0469 113.102V113.109C33.0469 114.977 32.1719 116.148 30.7344 116.148ZM30.7344 115.219C31.5078 115.219 31.9609 114.43 31.9609 113.109V113.102C31.9609 111.781 31.5078 111 30.7344 111C29.9609 111 29.5156 111.781 29.5156 113.102V113.109C29.5156 114.43 29.9609 115.219 30.7344 115.219Z" fill="#131313"/>
<path d="M159 60C163.418 60 167.055 63.5974 166.467 67.9765C165.486 75.2955 163.158 82.394 159.578 88.9052C154.71 97.7615 147.683 105.244 139.15 110.66C130.617 116.075 120.854 119.247 110.767 119.882C100.681 120.516 90.5977 118.593 81.4532 114.29C72.3087 109.987 64.3993 103.443 58.459 95.2671C52.5186 87.0909 48.7398 77.5466 47.4731 67.52C46.2065 57.4933 47.493 47.3092 51.2134 37.9125C53.9487 31.004 57.9344 24.6857 62.9481 19.2639C65.9478 16.02 71.0376 16.529 73.854 19.9333L77.4235 24.2482C80.2398 27.6525 79.6807 32.6552 76.9325 36.1147C74.5939 39.0586 72.6913 42.3414 71.2966 45.864C68.9155 51.8779 68.0921 58.3957 68.9028 64.8128C69.7135 71.2299 72.1319 77.3382 75.9337 82.5709C79.7356 87.8037 84.7976 91.9914 90.6501 94.7454C96.5026 97.4993 102.956 98.7304 109.411 98.3242C115.866 97.9181 122.115 95.888 127.576 92.4222C133.037 88.9564 137.534 84.1674 140.65 78.4993C142.475 75.1793 143.792 71.6208 144.57 67.9423C145.484 63.6196 148.982 60 153.4 60H159Z" fill="#FBA70A"/>
<path d="M73.5751 20.1657C70.735 16.7811 71.1533 11.6829 74.8854 9.31807C82.2177 4.67201 90.4993 1.65465 99.1682 0.513334C110.492 -0.977466 122.006 0.794621 132.357 5.62137C142.708 10.4481 151.466 18.129 157.603 27.7615C162.301 35.1359 165.313 43.4195 166.467 52.0227C167.055 56.4018 163.418 59.9993 159 59.9993L153.4 59.9994C148.982 59.9995 145.483 56.3799 144.57 52.0571C143.621 47.5715 141.873 43.2704 139.386 39.3674C135.459 33.2026 129.853 28.2868 123.228 25.1977C116.604 22.1086 109.235 20.9744 101.988 21.9285C97.3994 22.5326 92.9807 23.9578 88.9349 26.1147C85.0361 28.1932 80.0147 27.8401 77.1747 24.4555L73.5751 20.1657Z" fill="#A368F0"/>
<path d="M184.094 16.1875C181.766 16.1875 180.258 14.8906 180.109 13.1094L180.102 13.0156H181.453L181.461 13.0938C181.57 14.2031 182.594 14.9688 184.094 14.9688C185.57 14.9688 186.578 14.1406 186.578 12.9453V12.9297C186.578 11.5469 185.586 10.7734 184.008 10.7734H182.594V9.58594H183.945C185.289 9.58594 186.227 8.75781 186.227 7.63281V7.61719C186.227 6.4375 185.453 5.75781 184.078 5.75781C182.75 5.75781 181.805 6.46094 181.688 7.60156L181.68 7.67969H180.328L180.336 7.60156C180.516 5.76562 181.969 4.53906 184.078 4.53906C186.227 4.53906 187.641 5.73438 187.641 7.44531V7.46094C187.641 8.85156 186.656 9.80469 185.25 10.1016V10.1328C186.891 10.2734 188.008 11.2969 188.008 12.8984V12.9141C188.008 14.7969 186.352 16.1875 184.094 16.1875ZM194.125 16.1875C191.797 16.1875 190.289 14.8906 190.141 13.1094L190.133 13.0156H191.484L191.492 13.0938C191.602 14.2031 192.625 14.9688 194.125 14.9688C195.602 14.9688 196.609 14.1406 196.609 12.9453V12.9297C196.609 11.5469 195.617 10.7734 194.039 10.7734H192.625V9.58594H193.977C195.32 9.58594 196.258 8.75781 196.258 7.63281V7.61719C196.258 6.4375 195.484 5.75781 194.109 5.75781C192.781 5.75781 191.836 6.46094 191.719 7.60156L191.711 7.67969H190.359L190.367 7.60156C190.547 5.76562 192 4.53906 194.109 4.53906C196.258 4.53906 197.672 5.73438 197.672 7.44531V7.46094C197.672 8.85156 196.688 9.80469 195.281 10.1016V10.1328C196.922 10.2734 198.039 11.2969 198.039 12.8984V12.9141C198.039 14.7969 196.383 16.1875 194.125 16.1875ZM202.422 10.6562C200.984 10.6562 200.117 9.48438 200.117 7.61719V7.60938C200.117 5.74219 200.984 4.57812 202.422 4.57812C203.859 4.57812 204.734 5.74219 204.734 7.60938V7.61719C204.734 9.48438 203.859 10.6562 202.422 10.6562ZM203.266 16H202L209.672 4.72656H210.938L203.266 16ZM202.422 9.72656C203.195 9.72656 203.648 8.9375 203.648 7.61719V7.60938C203.648 6.28906 203.195 5.50781 202.422 5.50781C201.648 5.50781 201.203 6.28906 201.203 7.60938V7.61719C201.203 8.9375 201.648 9.72656 202.422 9.72656ZM210.5 16.1484C209.062 16.1484 208.195 14.9766 208.195 13.1094V13.1016C208.195 11.2344 209.062 10.0703 210.5 10.0703C211.938 10.0703 212.812 11.2344 212.812 13.1016V13.1094C212.812 14.9766 211.938 16.1484 210.5 16.1484ZM210.5 15.2188C211.273 15.2188 211.727 14.4297 211.727 13.1094V13.1016C211.727 11.7812 211.273 11 210.5 11C209.727 11 209.281 11.7812 209.281 13.1016V13.1094C209.281 14.4297 209.727 15.2188 210.5 15.2188Z" fill="#131313"/>
</svg>
