<svg width="48" height="48" viewBox="0 0 48 48" fill="none" xmlns="http://www.w3.org/2000/svg">
<path d="M24.4995 19.6362V28.9308H37.4158C36.8487 31.9199 35.1466 34.4509 32.594 36.1527L40.383 42.1964C44.9212 38.0074 47.5394 31.8546 47.5394 24.5456C47.5394 22.8438 47.3867 21.2073 47.103 19.6365L24.4995 19.6362Z" fill="#4285F4"/>
<path d="M11.0492 28.5681L9.2925 29.9129L3.07422 34.7564C7.0233 42.5891 15.1172 48.0001 24.499 48.0001C30.9788 48.0001 36.4115 45.8619 40.3825 42.1965L32.5934 36.1528C30.4552 37.5928 27.7279 38.4656 24.499 38.4656C18.259 38.4656 12.9574 34.2548 11.059 28.582L11.0492 28.5681Z" fill="#34A853"/>
<path d="M3.07436 13.2437C1.43808 16.4726 0.5 20.1163 0.5 23.9999C0.5 27.8834 1.43808 31.5271 3.07436 34.7561C3.07436 34.7778 11.0599 28.5597 11.0599 28.5597C10.58 27.1197 10.2962 25.5926 10.2962 23.9996C10.2962 22.4067 10.58 20.8795 11.0599 19.4395L3.07436 13.2437Z" fill="#FBBC05"/>
<path d="M24.4995 9.55636C28.0341 9.55636 31.1758 10.7781 33.6849 13.1345L40.5576 6.2619C36.3903 2.37833 30.9796 0 24.4995 0C15.1177 0 7.0233 5.38908 3.07422 13.2437L11.0596 19.44C12.9576 13.7672 18.2595 9.55636 24.4995 9.55636Z" fill="#EA4335"/>
</svg>
