<?xml version="1.0" standalone="no"?>
<!DOCTYPE svg PUBLIC "-//W3C//DTD SVG 20010904//EN"
 "http://www.w3.org/TR/2001/REC-SVG-20010904/DTD/svg10.dtd">
<svg version="1.0" xmlns="http://www.w3.org/2000/svg"
 width="252.000000pt" height="475.000000pt" viewBox="0 0 252.000000 475.000000"
 preserveAspectRatio="xMidYMid meet">

<g transform="translate(0.000000,475.000000) scale(0.100000,-0.100000)"
fill="#000000" stroke="none">
<path d="M800 3521 c-71 -22 -190 -103 -230 -155 -61 -82 -65 -95 -62 -216 2
-117 18 -254 21 -179 4 134 147 373 251 419 66 29 93 47 79 53 -12 5 -12 7 0
15 10 7 7 12 -15 20 -23 8 -24 11 -9 12 19 1 19 1 2 14 -18 14 -18 14 0 19 11
3 12 5 3 5 -8 0 -26 -3 -40 -7z m47 -57 c-3 -3 -12 -4 -19 -1 -8 3 -5 6 6 6
11 1 17 -2 13 -5z"/>
<path d="M867 3346 c-30 -32 -71 -115 -82 -163 -3 -18 -11 -33 -15 -33 -5 0
-33 -24 -62 -53 -87 -86 -138 -218 -138 -357 0 -45 -4 -69 -10 -65 -12 7 -12
-40 1 -150 12 -106 11 -105 19 -105 3 0 14 -14 24 -31 23 -40 99 -109 144
-133 66 -34 141 -55 225 -62 68 -5 85 -4 95 9 7 8 9 18 4 21 -5 3 -8 17 -7 31
2 18 -2 25 -13 26 -15 0 -14 1 1 8 12 4 -11 11 -65 19 -69 10 -92 18 -138 49
-67 47 -122 118 -152 198 -29 76 -31 222 -4 300 19 52 73 145 85 145 4 0 13
-22 20 -49 21 -84 90 -176 164 -219 48 -28 52 -28 52 3 0 14 -4 25 -9 25 -5 0
-3 6 3 13 6 8 8 17 4 20 -3 4 -1 7 6 7 7 0 -3 15 -22 33 -51 48 -84 104 -102
175 -19 73 -13 88 41 98 26 5 32 9 24 18 -6 9 -6 16 2 24 9 9 9 12 -1 12 -7 0
-10 4 -6 9 3 5 1 12 -5 16 -6 4 -8 11 -5 16 4 5 -1 9 -9 9 -23 0 -26 14 -10
44 18 36 18 40 -2 32 -11 -4 -14 -1 -10 12 3 9 -1 30 -8 47 l-12 30 -27 -29z"/>
<path d="M1380 1790 c0 -64 3 -80 15 -80 12 0 15 16 15 80 0 64 -3 80 -15 80
-12 0 -15 -16 -15 -80z"/>
<path d="M878 1846 c-62 -47 -27 -146 52 -146 41 0 75 48 71 102 -3 46 -83 75
-123 44z m96 -48 c20 -57 -57 -93 -90 -43 -15 23 -15 27 0 51 24 36 76 31 90
-8z"/>
<path d="M1141 1824 c-28 -35 -27 -69 4 -99 26 -27 54 -31 86 -15 31 17 22 29
-16 23 -43 -7 -65 9 -65 48 0 35 29 53 72 44 23 -6 29 -4 26 6 -3 8 -22 15
-45 17 -34 3 -44 -1 -62 -24z"/>
<path d="M1020 1756 c0 -25 5 -46 10 -46 6 0 11 5 11 10 1 6 3 15 4 20 1 6 3
17 4 25 0 8 8 15 16 15 10 0 15 -11 15 -35 0 -19 5 -35 11 -35 6 0 9 17 7 43
-3 41 -4 42 -40 45 l-38 3 0 -45z"/>
<path d="M1282 1788 c-27 -27 -3 -88 34 -88 16 0 54 35 54 51 0 6 -5 19 -10
30 -12 22 -59 26 -78 7z m56 -34 c2 -12 -4 -24 -12 -27 -19 -7 -40 18 -32 39
8 22 40 13 44 -12z"/>
<path d="M1430 1780 c-24 -44 17 -88 64 -70 20 7 26 17 26 38 0 15 -5 33 -12
40 -20 20 -66 15 -78 -8z m68 -24 c2 -10 -2 -22 -9 -26 -20 -13 -39 0 -39 27
0 20 4 24 22 21 13 -2 24 -11 26 -22z"/>
<path d="M1540 1760 c0 -46 26 -68 60 -50 15 8 20 21 20 50 0 22 -4 40 -10 40
-5 0 -10 -16 -10 -35 0 -28 -4 -35 -20 -35 -16 0 -20 7 -20 35 0 19 -4 35 -10
35 -5 0 -10 -18 -10 -40z"/>
<path d="M1640 1755 c0 -25 5 -45 10 -45 6 0 10 9 10 19 0 30 11 51 26 51 8 0
14 5 14 10 0 6 -13 10 -30 10 -29 0 -30 -2 -30 -45z"/>
<path d="M967 1553 c-4 -3 -7 -18 -7 -32 l0 -25 20 22 c11 12 20 26 20 32 0
11 -23 14 -33 3z"/>
<path d="M1010 1530 c0 -25 4 -30 23 -29 16 1 18 2 5 6 -21 5 -23 19 -5 26 9
4 9 6 -1 6 -7 1 -10 6 -7 11 3 6 1 10 -4 10 -6 0 -11 -13 -11 -30z"/>
<path d="M1070 1535 c-6 -15 -8 -30 -5 -33 3 -3 5 0 5 7 0 9 5 9 21 0 19 -10
20 -9 14 13 -12 39 -24 43 -35 13z"/>
<path d="M1124 1545 c-10 -24 4 -45 28 -44 l23 2 -22 4 c-25 5 -32 38 -10 46
9 4 9 6 -1 6 -7 1 -15 -6 -18 -14z"/>
<path d="M1191 1530 c1 -19 3 -27 6 -17 2 9 11 17 18 17 7 0 16 -8 18 -17 3
-11 5 -8 6 9 1 21 -3 26 -15 21 -9 -3 -20 0 -25 8 -6 10 -8 3 -8 -21z"/>
<path d="M1285 1539 c-8 -24 9 -41 39 -37 21 3 35 28 16 28 -6 0 -8 -4 -5 -10
3 -5 -3 -10 -14 -10 -26 0 -36 17 -21 35 8 10 9 15 2 15 -6 0 -14 -10 -17 -21z"/>
<path d="M1360 1530 c0 -16 4 -30 8 -30 5 0 7 14 4 30 -2 17 -6 30 -8 30 -2 0
-4 -13 -4 -30z"/>
<path d="M1404 1545 c-16 -40 31 -62 57 -27 11 14 11 15 -1 5 -8 -7 -23 -13
-33 -13 -15 0 -18 5 -15 25 6 28 1 33 -8 10z"/>
<path d="M1510 1551 c0 -6 4 -13 10 -16 6 -3 7 1 4 9 -7 18 -14 21 -14 7z"/>
<path d="M1536 1525 c-9 -26 -7 -32 5 -12 6 10 9 21 6 23 -2 3 -7 -2 -11 -11z"/>
<path d="M1495 1519 c-4 -6 -5 -12 -2 -15 2 -3 7 2 10 11 7 17 1 20 -8 4z"/>
<path d="M1031 1428 c1 -18 3 -25 6 -15 2 9 9 17 14 17 5 0 9 7 9 15 0 8 -7
15 -15 15 -10 0 -15 -10 -14 -32z"/>
<path d="M1070 1430 c0 -25 4 -30 23 -29 20 0 21 1 2 8 -19 8 -19 8 0 19 18
10 19 11 2 12 -10 0 -15 5 -12 10 3 6 1 10 -4 10 -6 0 -11 -13 -11 -30z"/>
<path d="M1120 1428 c0 -25 3 -29 10 -18 5 8 10 11 10 5 0 -14 20 17 20 33 0
6 -9 12 -20 12 -16 0 -20 -7 -20 -32z m30 12 c0 -5 -2 -10 -4 -10 -3 0 -8 5
-11 10 -3 6 -1 10 4 10 6 0 11 -4 11 -10z"/>
<path d="M1170 1430 c0 -32 1 -33 14 -14 8 10 11 21 8 24 -4 3 -10 9 -14 14
-5 5 -8 -6 -8 -24z"/>
<path d="M1220 1430 c0 -22 5 -30 18 -30 14 0 15 2 2 10 -11 7 -12 12 -4 18 9
5 8 11 -2 20 -12 11 -14 8 -14 -18z"/>
<path d="M1266 1445 c-9 -26 5 -45 33 -44 20 1 22 2 6 6 -31 8 -40 20 -25 38
7 8 8 15 2 15 -5 0 -12 -7 -16 -15z"/>
<path d="M1384 1445 c-8 -20 2 -45 18 -45 10 0 10 3 -1 9 -8 5 -12 18 -8 30 6
24 -1 29 -9 6z"/>
<path d="M1429 1448 c11 -15 11 -21 0 -35 -12 -17 -12 -17 6 0 19 17 19 17 0
35 -18 16 -18 16 -6 0z"/>
<path d="M1460 1428 c0 -23 3 -29 9 -19 8 12 4 51 -5 51 -2 0 -4 -15 -4 -32z"/>
<path d="M702 1181 c-3 -8 2 -185 11 -395 15 -339 19 -384 35 -406 34 -45 82
-51 432 -57 434 -7 589 9 619 64 6 12 13 177 17 409 l7 389 -234 2 c-129 1
-380 3 -558 5 -270 2 -324 1 -329 -11z m836 -18 c-10 -2 -28 -2 -40 0 -13 2
-5 4 17 4 22 1 32 -1 23 -4z m-562 -803 c8 0 14 -5 14 -10 0 -13 -70 -2 -85
13 -7 6 1 8 24 3 18 -3 40 -6 47 -6z"/>
</g>
</svg>
