<svg width="16" height="16" viewBox="0 0 16 16" fill="none" xmlns="http://www.w3.org/2000/svg">
<path d="M12 4.68421H12.3333C12.7015 4.68421 13 4.35431 13 3.94737V3.57895C13 3.172 12.7015 2.84211 12.3333 2.84211H10.3333M12 4.68421V13.5263C12 14.3402 11.4031 15 10.6667 15H5.33333C4.59695 15 4 14.3402 4 13.5263V4.68421M12 4.68421H4M10.3333 2.84211V2.47368C10.3333 1.65979 9.7364 1 9 1H7C6.26362 1 5.66667 1.65979 5.66667 2.47368V2.84211M10.3333 2.84211H5.66667M4 4.68421H3.66667C3.29848 4.68421 3 4.35431 3 3.94737V3.57895C3 3.172 3.29848 2.84211 3.66667 2.84211H5.66667M6.66667 7.26316V12.4211M9.33333 7.26316V12.4211" stroke="#545454" stroke-width="1.5" stroke-linecap="round"/>
</svg>
