<svg width="16" height="16" viewBox="0 0 16 16" fill="none" xmlns="http://www.w3.org/2000/svg">
<path d="M14 13.2803V6.25374C14 5.79764 13.8109 5.37069 13.4591 5.08164C12.535 4.32207 10.6544 2.81236 9.15791 1.47047C8.49003 0.871591 7.47483 0.833757 6.79469 1.41858L2.59865 5.02665C2.21868 5.35336 2 5.83033 2 6.33237V13.2803C2 14.2301 2.76751 15 3.71429 15H4.14286C5.08963 15 5.85714 14.2301 5.85714 13.2803V11.5605C5.85714 10.6107 6.62463 9.84077 7.57143 9.84077H8.42857C9.37537 9.84077 10.1429 10.6107 10.1429 11.5605V13.2803C10.1429 14.2301 10.9103 15 11.8571 15H12.2857C13.2325 15 14 14.2301 14 13.2803Z" stroke="#A368F0" stroke-width="1.5" stroke-linecap="round"/>
</svg>
