<svg width="16" height="16" viewBox="0 0 16 16" fill="none" xmlns="http://www.w3.org/2000/svg">
<g clip-path="url(#clip0_5229_1916)">
<path d="M3.80003 8H12.2M5.375 12.2V3.79998M3.625 12.2V3.79998M7.125 12.2V3.79998M10.625 12.2V3.79998M12.375 12.2V3.79998M11.5 1H13.25C14.2165 1 15 1.7835 15 2.75V4.5M11.5 15H13.25C14.2165 15 15 14.2165 15 13.25V11.5M4.5 1H2.75C1.7835 1 1 1.7835 1 2.75V4.5M4.5 15H2.75C1.7835 15 1 14.2165 1 13.25V11.5" stroke="#FBFBFB" stroke-width="1.5" stroke-linecap="round"/>
</g>
<defs>
<clipPath id="clip0_5229_1916">
<rect width="16" height="16" fill="white"/>
</clipPath>
</defs>
</svg>
