<svg width="16" height="16" viewBox="0 0 16 16" fill="none" xmlns="http://www.w3.org/2000/svg">
<path d="M3.47848 11.4118C3.58719 11.125 3.46087 10.8144 3.20345 10.6366C3.08422 10.5543 2.96654 10.4705 2.85242 10.3819C2.20327 9.88265 1.66404 9.2855 1.33367 8.52643C0.797178 7.29605 0.918029 6.10834 1.62134 4.979C2.35087 3.80764 3.43367 3.0748 4.70195 2.60834C6.80425 1.83455 8.93101 1.79626 11.0568 2.50881C12.3004 2.92551 13.3843 3.59431 14.1877 4.66122C15.3394 6.19248 15.259 8.15015 13.9936 9.60148C12.9681 10.7772 11.642 11.416 10.155 11.7676C9.34774 11.9588 7.25902 11.632 6.72165 12.0706C5.58962 13.0232 4.2908 13.6258 2.84808 13.9298C2.71683 13.9572 2.5823 13.9747 2.44939 13.9938C2.28095 14.0185 2.14314 13.972 2.05673 13.8145C1.97087 13.657 2.00203 13.5137 2.10923 13.3835C2.23391 13.2326 2.3608 13.0828 2.49697 12.9439C2.92828 12.5057 3.26176 11.9833 3.47848 11.4118Z" stroke="#A368F0" stroke-width="1.5" stroke-linecap="round"/>
</svg>
