<svg width="49" height="48" viewBox="0 0 49 48" fill="none" xmlns="http://www.w3.org/2000/svg">
<g clip-path="url(#clip0_4531_2376)">
<path d="M0.5 23.04C0.5 12.1788 0.5 6.74826 3.87413 3.37413C7.24826 0 12.6788 0 23.54 0H25.46C36.3212 0 41.7517 0 45.1259 3.37413C48.5 6.74826 48.5 12.1788 48.5 23.04V24.96C48.5 35.8212 48.5 41.2517 45.1259 44.6259C41.7517 48 36.3212 48 25.46 48H23.54C12.6788 48 7.24826 48 3.87413 44.6259C0.5 41.2517 0.5 35.8212 0.5 24.96V23.04Z" fill="#0077FF"/>
<path d="M26.04 34.5801C15.1 34.5801 8.8601 27.0801 8.6001 14.6001H14.0801C14.2601 23.7601 18.3 27.6401 21.5 28.4401V14.6001H26.6602V22.5001C29.8202 22.1601 33.1398 18.5601 34.2598 14.6001H39.4199C38.5599 19.4801 34.9599 23.0801 32.3999 24.5601C34.9599 25.7601 39.0601 28.9001 40.6201 34.5801H34.9399C33.7199 30.7801 30.6802 27.8401 26.6602 27.4401V34.5801H26.04Z" fill="white"/>
</g>
<defs>
<clipPath id="clip0_4531_2376">
<rect width="48" height="48" fill="white" transform="translate(0.5)"/>
</clipPath>
</defs>
</svg>
