<svg width="16" height="16" viewBox="0 0 16 16" fill="none" xmlns="http://www.w3.org/2000/svg">
<g clip-path="url(#clip0_5257_3217)">
<path d="M14.6645 7.18228C15.2778 6.73634 14.9623 5.76615 14.2041 5.76615H11.2253C10.542 5.76615 9.93762 5.32302 9.73203 4.67133L8.74674 1.54741C8.51657 0.81753 7.48368 0.81753 7.25342 1.54741L6.26816 4.67133C6.06261 5.32302 5.45819 5.76615 4.77486 5.76615H1.79613C1.03786 5.76615 0.722419 6.73634 1.33571 7.18228L3.98864 9.11129C4.56197 9.52811 4.78371 10.2782 4.52924 10.9398L3.37836 13.932C3.09836 14.66 3.93879 15.3049 4.56957 14.8462L7.07915 13.021C7.6282 12.6217 8.37204 12.6217 8.92109 13.021L11.4306 14.8462C12.0614 15.3049 12.9019 14.66 12.6218 13.932L11.4709 10.9398C11.2165 10.2782 11.4382 9.52811 12.0115 9.11129L14.6645 7.18228Z" stroke="#FBA70A" stroke-width="1.5" stroke-linecap="round"/>
</g>
<defs>
<clipPath id="clip0_5257_3217">
<rect width="16" height="16" fill="white"/>
</clipPath>
</defs>
</svg>
