<?xml version="1.0" standalone="no"?>
<!DOCTYPE svg PUBLIC "-//W3C//DTD SVG 20010904//EN"
 "http://www.w3.org/TR/2001/REC-SVG-20010904/DTD/svg10.dtd">
<svg version="1.0" xmlns="http://www.w3.org/2000/svg"
 width="339.000000pt" height="645.000000pt" viewBox="0 0 339.000000 645.000000"
 preserveAspectRatio="xMidYMid meet">

<g transform="translate(0.000000,645.000000) scale(0.100000,-0.100000)"
fill="#000000" stroke="none">
<path d="M1702 5434 c-27 -18 -29 -55 -4 -77 23 -21 41 -21 70 -1 27 18 29 55
4 77 -23 21 -41 21 -70 1z"/>
<path d="M1187 5433 c-3 -5 -6 -105 -8 -223 l-4 -215 188 -3 187 -2 0 30 0 30
-135 0 -135 0 0 195 0 195 -44 0 c-25 0 -47 -3 -49 -7z"/>
<path d="M2041 5326 c-24 -8 -54 -25 -68 -38 -70 -64 -71 -195 -2 -261 48 -46
167 -60 252 -31 49 17 58 32 31 55 -13 11 -20 11 -43 -2 -14 -8 -47 -16 -72
-17 -39 -2 -51 2 -79 28 -32 30 -32 31 -28 106 3 69 6 79 31 100 36 31 81 31
140 -1 45 -23 47 -24 57 -5 16 29 13 35 -27 54 -50 24 -137 29 -192 12z"/>
<path d="M1684 5307 c-2 -7 -3 -80 -2 -162 l3 -150 45 0 45 0 3 163 3 162 -46
0 c-28 0 -48 -5 -51 -13z"/>
<path d="M1412 4301 c-18 -3 -33 -9 -32 -13 1 -25 -2 -26 -20 -8 -35 35 -110
16 -110 -29 0 -8 -8 -10 -22 -6 -37 11 -45 25 -15 25 30 0 36 14 11 24 -24 9
-62 -4 -67 -24 -6 -22 1 -32 33 -47 l25 -12 -27 0 c-18 -1 -28 -6 -28 -16 0
-21 54 -20 75 1 12 13 19 14 28 5 18 -18 74 -13 95 9 l19 21 6 -21 c7 -25 24
-26 32 -1 3 11 16 21 27 23 32 5 35 28 4 28 -14 0 -26 5 -26 10 0 6 20 10 44
10 l45 0 3 -42 c4 -55 22 -56 26 -2 2 32 8 43 24 47 11 3 17 10 13 16 -7 12
-107 13 -163 2z m-88 -27 c20 -8 21 -38 0 -54 -12 -11 -18 -11 -30 2 -13 12
-14 20 -5 37 13 23 13 23 35 15z"/>
<path d="M1621 4298 c1 -27 45 -103 59 -103 8 0 24 18 35 40 l20 40 3 -37 c4
-46 17 -51 120 -44 80 5 96 10 58 20 -21 5 -25 13 -28 49 -2 29 -8 42 -18 42
-11 0 -16 -13 -18 -46 -3 -44 -4 -45 -32 -41 -34 5 -41 22 -10 22 27 0 25 28
-2 33 -20 4 -19 4 5 6 17 0 27 7 27 16 0 12 -14 15 -63 15 -58 0 -65 -2 -75
-25 -6 -14 -15 -25 -20 -25 -5 0 -14 11 -20 25 -12 26 -42 35 -41 13z"/>
<path d="M1940 4293 c0 -4 8 -17 16 -28 15 -20 16 -20 12 4 -3 22 -28 44 -28
24z"/>
<path d="M2019 4268 c-14 -20 -30 -33 -38 -30 -10 3 -12 0 -8 -12 4 -10 7 -20
7 -22 0 -2 7 -4 15 -4 8 0 25 19 37 43 l23 42 3 -47 c3 -42 6 -48 25 -48 12 0
32 -3 45 -6 16 -5 22 -2 22 10 0 11 -9 16 -30 16 -16 0 -30 5 -30 10 0 6 11
10 25 10 31 0 33 17 3 22 -32 4 -19 23 15 22 49 -3 57 -11 57 -55 0 -44 24
-52 26 -8 1 50 4 59 19 59 8 0 15 5 15 10 0 6 -17 10 -37 10 -21 0 -68 3 -104
6 l-66 7 -24 -35z"/>
<path d="M1281 4118 c-13 -4 -25 -17 -28 -28 -3 -13 -14 -20 -29 -20 -29 0
-32 17 -4 22 38 6 26 23 -17 26 l-43 3 0 -60 c0 -48 3 -61 15 -61 8 0 15 7 15
15 0 9 12 20 26 26 22 8 29 6 41 -11 19 -26 67 -26 93 0 l21 21 26 -21 c46
-36 93 -5 93 62 0 56 -26 50 -35 -8 -5 -35 -10 -44 -23 -42 -12 2 -18 15 -20
46 -3 47 -22 53 -32 11 -6 -24 -6 -24 -18 -3 -13 25 -49 34 -81 22z m49 -33
c18 -21 5 -45 -25 -45 -27 0 -35 26 -13 48 16 16 23 15 38 -3z"/>
<path d="M1507 4123 c-4 -3 -7 -28 -7 -55 0 -41 3 -48 20 -48 14 0 20 7 20 21
0 20 1 20 32 -6 38 -32 48 -22 48 48 0 40 -3 47 -20 47 -13 0 -20 -7 -20 -20
0 -11 -3 -20 -8 -20 -4 0 -13 9 -20 20 -12 20 -33 26 -45 13z"/>
<path d="M1630 4075 l0 -55 41 0 c22 0 49 5 60 10 13 7 19 7 19 0 0 -13 37
-13 45 0 3 6 15 10 26 10 10 0 19 -4 19 -10 0 -5 9 -10 21 -10 11 0 19 4 17 8
-1 4 -12 29 -23 55 -21 49 -50 63 -62 30 -4 -10 -15 -29 -25 -42 l-18 -24 0
30 c0 41 -17 53 -72 53 l-48 0 0 -55z m84 16 c10 -16 -5 -41 -25 -41 -14 0
-19 7 -19 25 0 18 5 25 19 25 11 0 22 -4 25 -9z"/>
<path d="M1870 4120 c0 -6 9 -14 20 -17 19 -5 21 -11 24 -55 2 -31 16 -31 17
0 2 55 3 57 27 60 20 3 22 -1 22 -42 0 -34 4 -46 15 -46 11 0 15 12 15 50 l0
50 -39 0 c-21 0 -53 3 -70 6 -21 5 -31 3 -31 -6z"/>
<path d="M2047 4102 c-36 -40 -8 -92 51 -92 23 0 36 7 48 26 16 24 16 27 -3
52 -25 34 -72 41 -96 14z m61 -14 c15 -15 16 -45 2 -53 -17 -10 -50 5 -50 24
0 16 18 41 30 41 3 0 11 -5 18 -12z"/>
<path d="M2169 4080 c-1 -16 -2 -37 -3 -47 -2 -24 21 -27 27 -3 3 13 10 18 21
14 21 -8 20 2 -5 37 -26 37 -39 37 -40 -1z"/>
<path d="M2242 4070 c0 -14 2 -19 5 -12 2 6 2 18 0 25 -3 6 -5 1 -5 -13z"/>
<path d="M1840 3855 c0 -8 -4 -15 -10 -15 -5 0 -10 -16 -10 -35 0 -38 10 -44
31 -19 12 14 14 14 26 -2 12 -16 13 -15 13 14 0 33 -16 42 -38 20 -9 -9 -12
-8 -12 5 0 9 7 20 16 25 15 8 15 10 0 15 -10 4 -16 1 -16 -8z"/>
<path d="M1140 3841 c0 -6 5 -13 10 -16 6 -3 10 -22 10 -41 0 -19 5 -34 10
-34 6 0 8 15 4 40 -5 32 -4 40 9 40 9 0 19 5 22 10 4 6 -8 10 -29 10 -20 0
-36 -4 -36 -9z"/>
<path d="M1340 3826 c0 -23 -22 -31 -35 -13 -16 22 -25 21 -25 0 -1 -17 -1
-17 -11 0 -13 23 -56 22 -69 -2 -22 -41 25 -78 60 -46 14 13 19 13 23 3 4 -10
9 -9 17 5 14 21 40 22 40 1 0 -8 4 -13 8 -10 12 7 14 64 2 71 -5 3 -10 -1 -10
-9z m-92 -33 c-4 -22 -22 -20 -26 1 -2 10 3 16 13 16 10 0 15 -7 13 -17z"/>
<path d="M1385 3830 c-3 -5 2 -10 12 -11 15 0 14 -2 -3 -9 -12 -5 -25 -13 -28
-19 -11 -16 32 -32 68 -26 27 6 35 12 40 37 7 34 26 29 26 -8 0 -13 5 -24 11
-24 6 0 9 14 7 33 -2 26 -8 33 -30 35 -23 3 -29 -2 -34 -24 l-7 -27 -14 27
c-14 26 -37 34 -48 16z m25 -40 c0 -5 -5 -10 -11 -10 -5 0 -7 5 -4 10 3 6 8
10 11 10 2 0 4 -4 4 -10z"/>
<path d="M1534 3826 c-14 -37 0 -51 54 -53 39 -1 52 2 52 13 0 8 7 14 15 14 8
0 15 -7 15 -15 0 -8 5 -15 10 -15 6 0 10 16 10 35 0 19 -4 35 -10 35 -5 0 -10
-7 -10 -15 0 -8 -7 -15 -15 -15 -8 0 -15 7 -15 15 0 19 -17 19 -27 0 -9 -15
-53 -10 -53 6 0 15 -20 10 -26 -5z"/>
<path d="M1708 3810 c-6 -37 9 -48 57 -42 32 4 35 7 35 38 0 19 -4 34 -10 34
-5 0 -10 -7 -10 -16 0 -11 -6 -14 -22 -8 -13 3 -24 11 -26 15 -7 19 -20 8 -24
-21z"/>
<path d="M1958 3806 c-6 -28 6 -45 16 -24 3 9 9 7 20 -6 9 -11 16 -16 16 -10
0 5 8 0 16 -11 11 -14 18 -16 21 -7 3 6 12 12 22 12 9 0 22 5 29 12 8 8 15 8
25 -1 12 -9 15 -6 19 17 4 25 1 29 -21 30 -15 1 -39 2 -56 4 -25 3 -30 -1 -35
-24 -4 -20 -9 -25 -19 -19 -8 5 -12 18 -8 31 5 18 3 19 -10 9 -12 -10 -16 -10
-22 0 -6 9 -10 5 -13 -13z m129 -2 c8 -21 -13 -42 -28 -27 -13 13 -5 43 11 43
6 0 13 -7 17 -16z"/>
<path d="M2260 3794 c-11 -12 -10 -18 3 -32 16 -15 17 -14 17 16 0 36 -2 38
-20 16z"/>
<path d="M2230 3785 c0 -5 5 -17 10 -25 5 -8 10 -10 10 -5 0 6 -5 17 -10 25
-5 8 -10 11 -10 5z"/>
<path d="M1288 3563 c-10 -2 -18 -9 -18 -15 0 -8 50 -9 167 -5 91 4 236 8 322
8 94 1 144 4 126 9 -32 8 -568 11 -597 3z"/>
<path d="M1930 3550 c20 -13 200 -13 200 0 0 6 -42 10 -107 10 -74 0 -103 -3
-93 -10z"/>
<path d="M1500 3410 c-29 -29 -27 -84 5 -115 13 -14 31 -25 40 -25 28 0 65 46
65 82 0 70 -64 104 -110 58z m68 -50 c3 -33 -12 -55 -32 -47 -16 6 -23 57 -9
71 14 14 38 0 41 -24z"/>
<path d="M1615 3419 c-5 -6 -1 -16 9 -21 12 -7 16 -23 16 -63 0 -54 13 -76 32
-57 5 5 10 41 11 78 l2 69 -32 3 c-17 2 -34 -2 -38 -9z"/>
<path d="M1700 3425 c0 -3 10 -25 23 -48 12 -23 24 -55 27 -72 3 -17 11 -30
20 -30 8 0 17 13 20 30 4 17 17 49 31 72 30 53 16 69 -22 24 l-28 -34 -18 31
c-10 18 -26 32 -35 32 -10 0 -18 -2 -18 -5z"/>
<path d="M1413 3073 c-104 -3 -143 -7 -143 -16 0 -9 93 -12 405 -12 223 0 405
3 405 6 0 4 -15 9 -32 12 -46 8 -464 15 -635 10z"/>
<path d="M1482 2848 c-15 -15 -16 -64 -2 -73 6 -4 10 5 10 20 0 15 4 24 10 20
6 -3 10 -14 10 -23 0 -14 13 -17 85 -19 48 -1 85 2 85 8 0 5 -5 9 -10 9 -7 0
-7 6 0 19 15 30 14 31 -42 28 -43 -3 -55 -7 -63 -25 -15 -33 -33 -27 -41 13
-6 36 -21 44 -42 23z m113 -37 c3 -5 1 -12 -5 -16 -5 -3 -10 1 -10 9 0 18 6
21 15 7z"/>
<path d="M1244 2823 c-8 -29 6 -58 27 -58 8 0 20 -4 28 -9 8 -5 16 -4 21 4 4
6 28 12 53 12 49 0 79 20 59 40 -6 6 -8 17 -5 24 4 11 -7 14 -45 14 -28 0 -54
-4 -57 -10 -3 -5 -2 -10 3 -10 5 0 12 -9 15 -20 4 -16 0 -20 -19 -20 -16 0
-24 6 -24 18 0 43 -46 56 -56 15z m159 -13 c3 -13 0 -20 -9 -20 -8 0 -14 2
-14 4 0 2 -3 11 -6 20 -4 10 -1 16 9 16 8 0 17 -9 20 -20z m-123 1 c0 -6 -4
-13 -10 -16 -5 -3 -10 1 -10 9 0 9 5 16 10 16 6 0 10 -4 10 -9z"/>
<path d="M1780 2805 c0 -25 5 -45 10 -45 6 0 10 20 10 45 0 25 -4 45 -10 45
-5 0 -10 -20 -10 -45z"/>
<path d="M1904 2834 c3 -9 6 -28 6 -42 0 -19 3 -23 9 -14 7 11 12 12 29 1 17
-10 23 -10 36 0 20 17 20 35 0 55 -11 12 -20 13 -34 6 -13 -7 -21 -7 -25 0
-10 16 -28 11 -21 -6z m74 -26 c-2 -13 -7 -23 -13 -23 -5 0 -11 10 -13 23 -2
15 2 22 13 22 11 0 15 -7 13 -22z"/>
<path d="M2141 2798 c0 -28 2 -30 9 -13 12 28 12 45 0 45 -5 0 -10 -15 -9 -32z"/>
<path d="M2035 2810 c-3 -5 -1 -18 4 -27 9 -16 10 -14 11 10 0 28 -5 34 -15
17z"/>
<path d="M2117 2789 c4 -13 8 -18 11 -10 2 7 -1 18 -6 23 -8 8 -9 4 -5 -13z"/>
<path d="M1125 2499 c-71 -5 -143 -10 -160 -12 l-30 -3 0 -116 c0 -65 4 -121
10 -126 6 -6 34 -7 70 -2 198 28 983 42 1155 21 122 -15 331 -33 336 -29 1 2
6 51 10 109 5 83 4 107 -7 116 -45 37 -1006 66 -1384 42z"/>
<path d="M1220 1788 c-158 -8 -205 -17 -205 -39 0 -8 6 -72 12 -144 7 -71 17
-206 23 -300 6 -93 15 -219 20 -280 14 -157 30 -415 38 -597 8 -175 16 -196
83 -231 31 -16 74 -17 556 -15 l523 3 31 32 c37 36 32 4 69 523 33 455 44 604
67 891 9 115 4 126 -60 133 -57 6 -697 27 -892 30 -66 1 -185 -2 -265 -6z"/>
</g>
</svg>
